HIERARCHY
ROOT Pelvis
{
	OFFSET 0.000000 0.000000 0.000000
	CHANNELS 6 Xposition Yposition Zposition Xrotation Yrotation Zrotation
	JOINT LeftUpLeg_virtual
	{
		OFFSET 0.000000 0.000000 0.000000
		CHANNELS 3 Xrotation Yrotation Zrotation
		JOINT LeftUpLeg
		{
			OFFSET 8.479700 -4.795502 -0.379100
			CHANNELS 3 Xrotation Yrotation Zrotation
			JOINT LeftLeg
			{
				OFFSET 0.024144 -32.555107 0.112900
				CHANNELS 3 Xrotation Yrotation Zrotation
				JOINT LeftFoot
				{
					OFFSET -0.024144 -32.638630 -3.012600
					CHANNELS 3 Xrotation Yrotation Zrotation
					JOINT LeftToeBase
					{
						OFFSET 0.970200 -13.225400 11.864200
						CHANNELS 3 Xrotation Yrotation Zrotation
						End Site
						{
							OFFSET 0 0 0
						}
					}
				}
			}
		}
	}
	JOINT RightUpLeg_virtual
	{
		OFFSET 0.000000 0.000000 0.000000
		CHANNELS 3 Xrotation Yrotation Zrotation
		JOINT RightUpLeg
		{
			OFFSET -8.479700 -4.795502 -0.379100
			CHANNELS 3 Xrotation Yrotation Zrotation
			JOINT RightLeg
			{
				OFFSET -0.023144 -32.555092 0.112900
				CHANNELS 3 Xrotation Yrotation Zrotation
				JOINT RightFoot
				{
					OFFSET 0.023144 -32.638641 -3.012700
					CHANNELS 3 Xrotation Yrotation Zrotation
					JOINT RightToeBase
					{
						OFFSET -0.970200 -13.225400 11.864200
						CHANNELS 3 Xrotation Yrotation Zrotation
						End Site
						{
							OFFSET 0 0 0
						}
					}
				}
			}
		}
	}
	JOINT Hips_virtual
	{
		OFFSET 0.000000 0.000000 0.000000
		CHANNELS 3 Xrotation Yrotation Zrotation
		JOINT Hips
		{
			OFFSET -0.000000 -0.000000 -0.000000
			CHANNELS 3 Xrotation Yrotation Zrotation
			JOINT Spine
			{
				OFFSET 0.000000 7.722000 1.166200
				CHANNELS 3 Xrotation Yrotation Zrotation
				JOINT Spine1
				{
					OFFSET 0.000000 12.024101 0.248800
					CHANNELS 3 Xrotation Yrotation Zrotation
					JOINT Spine2
					{
						OFFSET 0.000000 11.502998 -0.491200
						CHANNELS 3 Xrotation Yrotation Zrotation
						JOINT Neck_virtual
						{
							OFFSET 0.000000 0.000000 0.000000
							CHANNELS 3 Xrotation Yrotation Zrotation
							JOINT Neck
							{
								OFFSET 0.000000 18.430702 -3.123100
								CHANNELS 3 Xrotation Yrotation Zrotation
								JOINT Head
								{
									OFFSET 0.000000 9.051102 1.034000
									CHANNELS 3 Xrotation Yrotation Zrotation
									End Site
									{
										OFFSET 0 0 0
									}
								}
							}
						}
						JOINT LeftShoulder_virtual
						{
							OFFSET 0.000000 0.000000 0.000000
							CHANNELS 3 Xrotation Yrotation Zrotation
							JOINT LeftShoulder
							{
								OFFSET 6.197800 13.665199 -4.064700
								CHANNELS 3 Xrotation Yrotation Zrotation
								JOINT LeftArm
								{
									OFFSET 7.778100 -0.187103 -1.709300
									CHANNELS 3 Xrotation Yrotation Zrotation
									JOINT LeftForeArm
									{
										OFFSET 22.049376 0.000000 0.000000
										CHANNELS 3 Xrotation Yrotation Zrotation
										JOINT LeftHand
										{
											OFFSET 23.009392 0.000000 0.000000
											CHANNELS 3 Xrotation Yrotation Zrotation
											End Site
											{
												OFFSET 0 0 0
											}
										}
									}
								}
							}
						}
						JOINT RightShoulder_virtual
						{
							OFFSET 0.000000 0.000000 0.000000
							CHANNELS 3 Xrotation Yrotation Zrotation
							JOINT RightShoulder
							{
								OFFSET -6.197800 13.665199 -4.064700
								CHANNELS 3 Xrotation Yrotation Zrotation
								JOINT RightArm
								{
									OFFSET -7.778100 -0.187103 -1.709300
									CHANNELS 3 Xrotation Yrotation Zrotation
									JOINT RightForeArm
									{
										OFFSET -22.049376 0.000000 0.000000
										CHANNELS 3 Xrotation Yrotation Zrotation
										JOINT RightHand
										{
											OFFSET -23.009392 0.000000 0.000000
											CHANNELS 3 Xrotation Yrotation Zrotation
											End Site
											{
												OFFSET 0 0 0
											}
										}
									}
								}
							}
						}
					}
				}
			}
		}
	}
}
MOTION
Frames: 9
Frame Time: 0.03333333
1.718204 71.899284 22.544359 0.000000 0.000000 0.000000 5.541070 -51.742907 7.882692 -5.508541 15.153237 -7.034335 49.232096 -9.304412 -8.077792 -32.695976 -9.345728 17.293079 0.000000 0.000000 0.000000 5.541070 -51.742907 7.882692 -51.715156 -0.752920 -1.843792 18.934169 10.239816 3.404142 -7.994462 2.116214 19.358201 0.000000 0.000000 0.000000 5.541070 -51.742907 7.882692 0.000000 -0.000002 0.000000 11.658724 -6.107178 4.629050 7.182702 -7.370589 1.871815 0.000000 0.000000 0.000000 -3.934140 -6.959429 2.025282 7.764874 41.421522 -11.305570 0.000000 0.000000 0.000000 -3.934140 -6.959429 2.025282 1.383209 -5.637202 -0.733877 -2.266012 -2.878844 -36.679475 -0.000823 -20.848222 -3.050622 0.000000 0.000000 0.000000 -3.934140 -6.959429 2.025282 9.987217 -5.269199 3.687166 4.872922 -1.636425 76.375524 -10.545827 13.289831 4.346981 0.000000 0.000000 0.000000 
2.673633 72.214226 21.641552 0.000000 0.000000 0.000000 5.642947 -52.973776 7.462006 -4.339674 14.968453 -7.197536 45.743174 -8.667507 -8.034885 -35.568084 -8.948769 16.127099 0.000000 0.000000 0.000000 5.642947 -52.973776 7.462006 -51.290681 -1.758374 -2.515107 18.398359 11.045987 4.488066 -5.129883 3.000678 20.297068 0.000000 0.000000 0.000000 5.642947 -52.973776 7.462006 0.000000 -0.000003 0.000000 11.522848 -5.906980 4.653575 6.897508 -6.951606 1.878611 0.000000 0.000000 0.000000 -4.209827 -6.549561 2.113399 6.754097 41.480439 -10.680604 0.000000 0.000000 0.000000 -4.209827 -6.549561 2.113399 1.270533 -5.316228 -0.766508 -4.829680 -2.597533 -36.315098 -0.000759 -23.380844 -2.655198 0.000000 0.000000 0.000000 -4.209827 -6.549561 2.113399 10.009434 -5.246996 3.894586 5.281032 -0.456757 74.450346 -9.017216 16.459817 6.074808 0.000000 0.000000 0.000000 
3.556675 72.569618 20.809248 0.000000 0.000000 0.000000 5.899108 -53.898454 7.738450 -3.769811 14.697435 -7.777277 42.994490 -7.821770 -7.985773 -37.081329 -8.133914 14.639066 0.000000 0.000000 0.000000 5.899108 -53.898454 7.738450 -51.524078 -1.436273 -2.801943 19.558091 11.164048 4.147156 -2.097259 3.743147 20.030669 0.000000 0.000000 0.000000 5.899108 -53.898454 7.738450 0.000000 0.000003 0.000000 11.430008 -5.752045 4.606016 6.702433 -6.646075 1.735210 0.000000 0.000000 0.000000 -4.396955 -6.222360 2.032142 5.775673 41.621144 -10.698917 0.000000 0.000000 0.000000 -4.396955 -6.222360 2.032142 1.193828 -5.438122 -0.666399 -7.183529 -1.982277 -36.296158 -0.000734 -25.615156 -2.431708 0.000000 0.000000 0.000000 -4.396955 -6.222360 2.032142 10.002473 -5.247356 3.791884 5.106705 1.244154 72.693970 -7.342020 18.797417 7.476833 0.000000 0.000000 0.000000 
4.335822 72.878296 20.017679 0.000000 0.000000 0.000000 6.173110 -54.481356 8.208859 -3.636747 13.903887 -8.482848 40.869325 -7.190461 -7.593864 -38.296936 -7.088170 12.515540 0.000000 0.000000 0.000000 6.173110 -54.481356 8.208859 -52.000003 -0.362812 -2.927390 21.483639 11.105475 2.826774 1.226633 4.282444 20.925147 0.000000 0.000000 0.000000 6.173110 -54.481356 8.208859 0.000000 0.000002 0.000000 11.395099 -5.630443 4.529107 6.628095 -6.390915 1.563481 0.000000 0.000000 0.000000 -4.464393 -5.939067 1.913260 4.365871 41.687448 -10.666467 0.000000 0.000000 0.000000 -4.464393 -5.939067 1.913260 1.126229 -5.641828 -0.722997 -9.346833 -1.665557 -36.045316 -0.000768 -28.424326 -2.537049 0.000000 0.000000 0.000000 -4.464393 -5.939067 1.913260 10.045356 -5.469083 3.772897 4.495826 3.336450 70.727633 -5.588862 20.793994 8.779318 0.000000 0.000000 0.000000 
5.025377 73.325920 19.202080 0.000000 0.000000 0.000000 5.519276 -54.774357 7.446386 -3.427642 13.167619 -8.601773 39.325494 -6.831657 -6.783827 -38.927932 -6.514628 10.854567 0.000000 0.000000 0.000000 5.519276 -54.774357 7.446386 -51.000599 0.686167 -3.036534 22.361175 10.322375 1.661597 4.396195 4.666360 20.937241 0.000000 0.000000 0.000000 5.519276 -54.774357 7.446386 0.000000 -0.000001 0.000000 11.481618 -5.524495 4.544299 6.794956 -6.175019 1.573892 0.000000 0.000000 0.000000 -4.293372 -5.729233 1.965306 3.628502 41.912554 -10.957754 0.000000 0.000000 0.000000 -4.293372 -5.729233 1.965306 1.050624 -5.732696 -0.645918 -10.981758 -1.677346 -36.071342 -0.000887 -31.013799 -2.911607 0.000000 0.000000 0.000000 -4.293372 -5.729233 1.965306 10.061757 -5.462831 3.895497 4.113596 5.243610 68.416939 -3.708426 23.102772 10.041070 0.000000 0.000000 0.000000 
5.561746 73.760643 18.454971 0.000000 0.000000 0.000000 4.987203 -54.860441 6.727857 -4.030211 12.854881 -8.458200 39.318609 -6.310679 -6.173081 -38.722193 -6.714621 10.764888 0.000000 0.000000 0.000000 4.987203 -54.860441 6.727857 -50.133049 1.198629 -3.602386 23.545206 9.727876 0.949077 6.479205 4.777603 21.526321 0.000000 0.000000 0.000000 4.987203 -54.860441 6.727857 0.000000 -0.000001 0.000000 11.502820 -5.444530 4.551720 6.834366 -6.010245 1.594520 0.000000 0.000000 0.000000 -4.251027 -5.571435 2.017427 3.703596 41.886948 -11.064474 0.000000 0.000000 0.000000 -4.251027 -5.571435 2.017427 0.973891 -5.733008 -0.462223 -11.896126 -1.914697 -36.295796 -0.001024 -33.209025 -3.280017 0.000000 0.000000 0.000000 -4.251027 -5.571435 2.017427 10.043572 -5.196840 4.149177 3.853501 6.445253 65.962511 -1.857259 25.215385 11.159717 0.000000 0.000000 0.000000 
6.035299 74.238960 17.775473 0.000000 0.000000 0.000000 4.609853 -54.967296 6.146582 -5.057756 12.621087 -7.840210 39.591410 -6.349714 -5.769583 -37.455070 -6.184664 9.334966 0.000000 0.000000 0.000000 4.609853 -54.967296 6.146582 -50.183862 1.287404 -4.331869 26.630166 9.362814 0.536208 7.364774 4.653823 20.655049 0.000000 0.000000 0.000000 4.609853 -54.967296 6.146582 0.000000 0.000000 0.000000 11.433627 -5.326088 4.548804 6.694518 -5.768193 1.629702 0.000000 0.000000 0.000000 -4.386764 -5.340689 2.098762 4.813566 41.861943 -11.383542 0.000000 0.000000 0.000000 -4.386764 -5.340689 2.098762 0.895371 -5.618213 -0.777118 -12.243663 -2.567109 -36.477558 -0.001111 -34.856378 -3.584401 0.000000 0.000000 0.000000 -4.386764 -5.340689 2.098762 10.015894 -4.970772 4.255782 3.950561 7.355759 63.498418 -0.103375 27.514290 11.861219 0.000000 0.000000 0.000000 
6.456083 74.725357 17.139753 0.000000 0.000000 0.000000 4.671888 -55.540834 6.121600 -5.830211 12.561155 -7.456714 39.210736 -6.134402 -5.658776 -36.124765 -5.680613 8.196895 0.000000 0.000000 0.000000 4.671888 -55.540834 6.121600 -50.348999 0.981415 -5.234890 29.427187 9.216318 0.449648 7.949765 4.652394 19.302716 0.000000 0.000000 0.000000 4.671888 -55.540834 6.121600 0.000000 -0.000001 0.000000 11.271734 -5.116756 4.500588 6.364880 -5.355545 1.539471 0.000000 0.000000 0.000000 -4.708430 -4.918510 2.090041 6.955227 41.759227 -11.922308 0.000000 0.000000 0.000000 -4.708430 -4.918510 2.090041 0.810786 -5.278857 -1.330835 -12.283252 -3.393824 -36.663786 -0.001113 -36.423220 -3.701651 0.000000 0.000000 0.000000 -4.708430 -4.918510 2.090041 9.944003 -4.639672 4.134229 4.256448 7.934861 61.439956 1.512770 29.803582 11.908874 0.000000 0.000000 0.000000 
6.773773 75.128250 16.613445 0.000000 0.000000 0.000000 4.686119 -56.463156 6.311196 -6.096957 12.443187 -7.567702 38.453559 -5.507299 -5.621480 -35.028506 -5.083563 7.399068 0.000000 0.000000 0.000000 4.686119 -56.463156 6.311196 -50.340270 0.651970 -6.301673 31.917354 9.084368 0.327336 8.341805 4.626229 18.583029 0.000000 0.000000 0.000000 4.686119 -56.463156 6.311196 0.000000 0.000000 0.000000 11.120256 -4.871920 4.377526 6.057579 -4.873880 1.293566 0.000000 0.000000 0.000000 -5.005832 -4.398734 1.941864 9.370742 41.619515 -12.710834 0.000000 0.000000 0.000000 -5.005832 -4.398734 1.941864 0.726428 -4.708475 -1.957526 -12.057521 -4.118219 -36.827936 -0.001180 -38.078339 -3.704879 0.000000 0.000000 0.000000 -5.005832 -4.398734 1.941864 9.865725 -4.231581 4.092674 4.685746 8.325004 59.480846 2.857330 31.999371 11.696041 0.000000 0.000000 0.000000 
